<svg width="580" height="140" viewBox="0 0 580 140" fill="none" xmlns="http://www.w3.org/2000/svg">
<path d="M119.502 32.3242C119.291 31.5497 118.986 30.816 118.592 30.1366C118.578 30.1094 118.565 30.0822 118.551 30.0618C114.556 22.4186 103.706 22.9622 88.0869 28.0576C85.6615 24.5248 81.7821 21.6713 77.0399 20C78.786 22.0925 79.8255 24.6606 79.8255 27.4462C79.8255 28.7778 79.5877 30.055 79.1529 31.2576C73.2625 33.5199 66.8694 36.2307 60.0415 39.254C54.6199 37.4129 50.7746 32.827 50.7746 27.4462C50.7746 25.7545 51.1618 24.1375 51.8548 22.6632C46.7526 25.9923 43.5119 30.9518 43.5119 36.4957C43.5119 40.9389 45.5908 45.0085 49.0489 48.1609L30.4539 99.1834C29.5299 101.092 29 103.219 29 105.481C29 113.498 35.5018 120 43.5187 120C43.9331 120 44.3951 119.973 44.891 119.932C44.9522 119.932 45.0133 119.918 45.0745 119.918C51.1415 119.321 62.8474 115.706 69.621 113.58C78.8675 110.672 94.0248 105.25 97.8973 102.071C102.395 98.7486 105.31 93.4153 105.31 87.4027C105.31 79.2975 100.017 72.4356 92.7 70.0645C116.948 56.8028 122.709 42.0192 119.502 32.331V32.3242Z" fill="#0A64F0"/>
<path d="M171.727 54.3502C163.683 54.3502 158.805 57.6793 156.373 60.0096V34.3081L145.163 36.4142V105.339H156.373V100.834C158.805 103.165 163.683 106.494 171.727 106.494C185.791 106.494 196.396 95.2837 196.396 80.4254C196.396 65.567 185.791 54.357 171.727 54.357V54.3502ZM171.781 96.2688C163.221 96.2688 157.005 89.604 157.005 80.4186C157.005 71.2332 163.221 64.5683 171.781 64.5683C180.342 64.5683 186.151 71.0837 186.151 80.4186C186.151 89.7534 180.24 96.2688 171.781 96.2688Z" fill="#212121"/>
<path d="M243.213 60.0097C240.781 57.6794 235.903 54.3503 227.859 54.3503C213.795 54.3503 203.19 65.5603 203.19 80.4187C203.19 95.277 213.795 106.487 227.859 106.487C235.903 106.487 240.781 103.158 243.213 100.828V105.332H254.423V55.2268L243.213 57.3329V60.0165V60.0097ZM243.376 80.4187C243.376 89.6041 237.16 96.2689 228.599 96.2689C220.039 96.2689 214.23 89.7536 214.23 80.4187C214.23 71.0838 220.141 64.5684 228.599 64.5684C237.058 64.5684 243.376 71.2333 243.376 80.4187Z" fill="#212121"/>
<path d="M288.705 54.3503C281.198 54.3503 276.483 57.7133 274.091 60.0844V55.2268L262.881 57.3329V105.346H274.091V79.6034C274.091 71.274 279.832 64.4937 286.891 64.4937C291.864 64.4937 297.795 66.8172 297.795 77.871V105.339H309.005V76.3899C309.005 63.2096 300.846 54.3571 288.698 54.3571L288.705 54.3503Z" fill="#212121"/>
<path d="M364.926 54.9889L349.158 57.1697L329.19 78.6046V34.3081L317.98 36.4142V105.339H329.19V92.7428L337.01 84.5153L352.507 105.339H365.993L344.273 76.811L364.926 54.9889Z" fill="#212121"/>
<path d="M402.612 87.5658C400.826 92.933 396.083 96.2689 390.234 96.2689C381.775 96.2689 375.865 89.7535 375.865 80.4186C375.865 71.0837 381.775 64.5683 390.234 64.5683C395.988 64.5683 400.662 67.843 402.449 73.1083L402.762 74.0323H414.108L413.714 72.3542C411.18 61.579 401.743 54.3367 390.234 54.3367C375.511 54.3367 364.824 65.3021 364.824 80.405C364.824 95.5079 375.579 106.473 390.397 106.473C401.899 106.473 411.112 99.3465 413.87 88.3132L414.298 86.6215H402.918L402.606 87.5522L402.612 87.5658Z" fill="#212121"/>
<path d="M445.788 54.3503C431.018 54.3503 420.297 65.3158 420.297 80.4187C420.297 95.5216 431.018 106.487 445.788 106.487C460.558 106.487 471.197 95.5216 471.197 80.4187C471.197 65.3158 460.51 54.3503 445.788 54.3503ZM460.157 80.4187C460.157 89.6041 454.117 96.2689 445.788 96.2689C437.458 96.2689 431.337 89.6041 431.337 80.4187C431.337 71.2333 437.411 64.5684 445.788 64.5684C454.165 64.5684 460.157 71.2333 460.157 80.4187Z" fill="#212121"/>
<path d="M539.782 57.2783L528.925 89.4069L517.491 55.3217L506.431 57.2783L495.73 89.1623L484.289 55.3013L473.33 57.4482L490.241 105.339H500.744L512.131 72.1027L523.585 105.339H534.089L551.828 55.1111L539.782 57.2783Z" fill="#212121"/>
</svg>
